<?xml version="1.0" encoding="UTF-8"?>
<svg width="24px" height="24px" viewBox="0 0 24 24" version="1.1" xmlns="http://www.w3.org/2000/svg" xmlns:xlink="http://www.w3.org/1999/xlink">
    <!-- Generator: Sketch 52.6 (67491) - http://www.bohemiancoding.com/sketch -->
    <title>Artboard Copy 19</title>
    <desc>Created with Sketch.</desc>
    <g id="Artboard-Copy-19" stroke="none" stroke-width="1" fill="none" fill-rule="evenodd">
        <g id="Elements/Icons/Black/Social/Youtube" transform="translate(5.000000, 2.000000)" fill="#12100B">
            <g id="Social_Logo_YouTube" transform="translate(0.000000, 0.500000)">
                <g id="Social_Logo_YouTube_dBlack">
                    <g id="Layer_1">
                        <path d="M12.0010714,6.79198783 L12.0010714,1.80182556 L11.0908929,1.80182556 L11.0908929,5.61579615 C10.8894643,5.89959432 10.69875,6.03962982 10.5166071,6.03962982 C10.3939286,6.03962982 10.3242857,5.96774848 10.3033929,5.82771298 C10.2921429,5.79842799 10.2921429,5.68820994 10.2921429,5.47576065 L10.2921429,1.80182556 L9.38571429,1.80182556 L9.38571429,5.74784483 C9.38571429,6.09979716 9.41625,6.33886917 9.46607143,6.48955375 C9.55660714,6.74246957 9.75857143,6.86067444 10.0521429,6.86067444 C10.3832143,6.86067444 10.7292857,6.6604716 11.0908929,6.24728702 L11.0908929,6.79198783 L12.0010714,6.79198783 L12.0010714,6.79198783 L12.0010714,6.79198783 Z M7.72607143,5.34690669 C7.72607143,5.80854462 7.58571429,6.03962982 7.29214286,6.03962982 C6.99857143,6.03962982 6.85767857,5.80854462 6.85767857,5.34690669 L6.85767857,3.24743915 C6.85767857,2.78580122 6.99857143,2.55578093 7.29214286,2.55578093 C7.58571429,2.55578093 7.72607143,2.78580122 7.72607143,3.24743915 L7.72607143,5.34690669 L7.72607143,5.34690669 L7.72607143,5.34690669 Z M8.63625,5.1765213 L8.63625,3.42847363 C8.63625,2.89495436 8.54464286,2.50519777 8.35392857,2.2528144 C8.10214286,1.91204361 7.74857143,1.74112576 7.29267857,1.74112576 C6.83946429,1.74112576 6.48535714,1.91204361 6.23357143,2.2528144 C6.04017857,2.50519777 5.94857143,2.89495436 5.94857143,3.42847363 L5.94857143,5.1765213 C5.94857143,5.70684584 6.04017857,6.09979716 6.23357143,6.35058316 C6.48535714,6.6908215 6.83946429,6.8612069 7.29267857,6.8612069 C7.74857143,6.8612069 8.10214286,6.6908215 8.35392857,6.35058316 C8.54464286,6.09979716 8.63625,5.70684584 8.63625,5.1765213 L8.63625,5.1765213 L8.63625,5.1765213 Z M5.94,0.095841785 L4.92,0.095841785 L4.23214286,2.72510142 L3.51535714,0.095841785 L2.45410714,0.095841785 C2.66625,0.716151116 2.88803571,1.34018763 3.10125,1.96156187 C3.42482143,2.89495436 3.62625,3.59939148 3.71732143,4.08019777 L3.71732143,6.79198783 L4.72660714,6.79198783 L4.72660714,4.08019777 L5.94,0.095841785 L5.94,0.095841785 L5.94,0.095841785 Z" id="Shape"></path>
                        <path d="M12.4885714,11.8582911 C12.1875,11.8582911 12.0375,12.0872465 12.0375,12.5435598 L12.0375,12.9998732 L12.9375,12.9998732 L12.9375,12.5435598 C12.9375,12.0872465 12.7875,11.8582911 12.4885714,11.8582911 L12.4885714,11.8582911 L12.4885714,11.8582911 Z" id="Shape"></path>
                        <g id="Group" transform="translate(0.000000, 7.454361)">
                            <path d="M9.14839286,4.40393002 C9.00107143,4.40393002 8.84946429,4.47474645 8.7,4.6211714 L8.7,7.6311359 C8.84946429,7.78022312 9.00107143,7.85103955 9.14839286,7.85103955 C9.40821429,7.85103955 9.54,7.6311359 9.54,7.18493915 L9.54,5.07748479 C9.54053571,4.6328854 9.40821429,4.40393002 9.14839286,4.40393002 L9.14839286,4.40393002 L9.14839286,4.40393002 Z" id="Shape"></path>
                            <path d="M13.8385714,6.29041582 L12.0380357,6.29041582 L12.0380357,7.1668357 C12.0380357,7.62368154 12.1885714,7.85210446 12.4971429,7.85210446 C12.7189286,7.85210446 12.8485714,7.73176978 12.9,7.49323022 C12.9085714,7.44371197 12.9192857,7.24510649 12.9192857,6.88623225 L13.8385714,6.88623225 L13.8385714,7.01721602 C13.8385714,7.30527383 13.8273214,7.50334686 13.8192857,7.59333164 C13.7882143,7.79140467 13.7185714,7.97084178 13.6082143,8.13004564 C13.3591071,8.48785497 12.99,8.66462982 12.5201786,8.66462982 C12.04875,8.66462982 11.6903571,8.49690669 11.4305357,8.15986308 C11.2398214,7.91280426 11.14125,7.52304767 11.14125,6.99751521 L11.14125,5.26810345 C11.14125,4.73990872 11.2280357,4.35494422 11.4198214,4.10415822 C11.6791071,3.7660497 12.0380357,3.59779412 12.4982143,3.59779412 C12.9503571,3.59779412 13.30875,3.7660497 13.5605357,4.10415822 C13.7491071,4.35494422 13.8396429,4.73937627 13.8396429,5.26810345 L13.8385714,6.29041582 L13.8385714,6.29041582 L13.8385714,6.29041582 Z M10.44,7.11572008 C10.44,7.57150101 10.4094643,7.90109026 10.35,8.11034483 C10.2283929,8.47720588 9.98785714,8.66462982 9.62892857,8.66462982 C9.30910714,8.66462982 9,8.48785497 8.7,8.11833164 L8.7,8.59700811 L7.8,8.59700811 L7.8,1.97008114 L8.70053571,1.97008114 L8.70053571,4.13450811 C8.99089286,3.7788286 9.29946429,3.59832657 9.63,3.59832657 C9.98892857,3.59832657 10.2294643,3.78628296 10.35,4.15633874 C10.4094643,4.35494422 10.44,4.68133874 10.44,5.14830122 L10.44,7.11572008 L10.44,7.11572008 L10.44,7.11572008 Z M7.02053571,8.59700811 L6.11946429,8.59700811 L6.11946429,8.0581643 C5.76214286,8.46602434 5.42196429,8.66462982 5.09089286,8.66462982 C4.80053571,8.66462982 4.60071429,8.54802231 4.51071429,8.29776876 C4.46142857,8.149214 4.43142857,7.91280426 4.43142857,7.56404665 L4.43142857,3.65955882 L5.33142857,3.65955882 L5.33142857,7.2951572 C5.33142857,7.50441176 5.33142857,7.61409736 5.34,7.64231744 C5.36142857,7.78128803 5.43,7.85210446 5.55053571,7.85210446 C5.73107143,7.85210446 5.92017857,7.71313387 6.11946429,7.43359533 L6.11946429,3.65955882 L7.02053571,3.65955882 L7.02053571,8.59700811 L7.02053571,8.59700811 L7.02053571,8.59700811 Z M4.30017857,2.90294118 L3.22178571,2.90294118 L3.22178571,8.59700811 L2.22053571,8.59700811 L2.22053571,2.90294118 L1.16142857,2.90294118 L1.16142857,1.97008114 L4.30017857,1.97008114 L4.30017857,2.90294118 L4.30017857,2.90294118 L4.30017857,2.90294118 Z M14.6903571,1.89394016 C14.5082143,1.10697262 13.86,0.527129817 13.0805357,0.440339757 C11.2328571,0.234812373 9.36375,0.234279919 7.50160714,0.234812373 C5.64,0.234279919 3.77035714,0.234812373 1.92321429,0.440339757 C1.14321429,0.527129817 0.495,1.10750507 0.313392857,1.89394016 C0.0535714286,3.0158215 0.0508928571,4.23940162 0.0508928571,5.39429513 C0.0508928571,6.54865619 0.0508928571,7.77383367 0.310178571,8.89411765 C0.492321429,9.68161765 1.13946429,10.2619929 1.92,10.3482505 C3.76714286,10.5532454 5.63678571,10.5548428 7.49839286,10.5532454 C9.36053571,10.5548428 11.2296429,10.5532454 13.0767857,10.3482505 C13.8567857,10.2619929 14.505,9.68055274 14.6866071,8.89411765 C14.9464286,7.77383367 14.9475,6.54865619 14.9475,5.39429513 C14.9485714,4.23940162 14.9496429,3.0158215 14.6903571,1.89394016 L14.6903571,1.89394016 L14.6903571,1.89394016 Z" id="Shape"></path>
                        </g>
                    </g>
                </g>
            </g>
        </g>
    </g>
</svg>